<svg xmlns="http://www.w3.org/2000/svg" xmlns:xlink="http://www.w3.org/1999/xlink" version="1.1" x="0px" y="0px" viewBox="0 0 132 165" enable-background="new 0 0 132 132" xml:space="preserve"><g><g><path d="M78.2,1.5H17.3c-5.2,0-9.4,4.2-9.4,9.4v17.7c-1.2,0.5-2,1.6-2,2.9v7.8c0,1.3,0.8,2.5,2,2.9v4.8c-1.2,0.5-2,1.6-2,2.9v7.8    c0,1.3,0.8,2.5,2,2.9v60.3c0,5.2,4.2,9.4,9.4,9.4h60.9c5.2,0,9.4-4.2,9.4-9.4V10.9C87.6,5.7,83.4,1.5,78.2,1.5z M58.6,9.4h4.5v2    h-4.5V9.4z M40.8,9.4h13.9v2H40.8V9.4z M47.7,127.1c-2.2,0-4.1-1.8-4.1-4.1c0-2.2,1.8-4.1,4.1-4.1c2.3,0,4.1,1.8,4.1,4.1    C51.8,125.3,50,127.1,47.7,127.1z M81.4,114.7H14h0l0-97.3l67.5-0.1V114.7z"/></g><path d="M124.1,60.7c-4.5-1.3-7-0.6-7.7-3c-1.4-4.7-3.1-5.4-1.9-7.3l3.3-5c0.7-1,0.5-2.3-0.3-3.2l-4-4c-0.8-0.8-2.2-1-3.1-0.3   l-5,3.3c-0.8,0.5-1.8,0.5-2.6,0.1c-1.5-0.8-3.1-1.5-4.8-2c-0.9-0.3-1.6-1-1.8-1.9l-1.2-5.8c-0.2-1.2-1.3-2-2.5-2h-2.8v16.7   c10.8,0,19.6,8.8,19.6,19.6c0,10.8-8.8,19.6-19.6,19.6v16.7h2.8c1.2,0,2.2-0.8,2.5-2l1.2-5.8c0.2-0.9,0.9-1.6,1.8-1.9   c1.6-0.5,3.2-1.2,4.7-2c0.8-0.4,1.8-0.4,2.6,0.1l5,3.3c1,0.7,2.3,0.5,3.1-0.3l4-4c0.8-0.8,1-2.2,0.3-3.2l-3.3-5   c-0.5-0.8-0.5-1.8-0.1-2.6c0.8-1.5,1.4-3.1,1.9-4.7c0.3-0.9,1-1.6,1.9-1.8l5.9-1.2c1.2-0.2,2-1.3,2-2.4v-5.6   C126.1,62,125.3,61,124.1,60.7z"/><path d="M37.3,80.3c1.8,3.3,1.2,7.5-1.6,10.3C33.4,93,30,93.8,27,92.9l4-4l-1.5-4.5l-4.5-1.5l-4,4c-0.9-3-0.1-6.3,2.2-8.7   c2.8-2.8,7-3.3,10.4-1.6l9.4-9.5l3.6,3.6L37.3,80.3z"/><path d="M72.6,53.7c-2.8,2.8-7,3.3-10.3,1.6l-9.4,9.4l-3.6-3.6l9.5-9.5c-1.8-3.3-1.3-7.5,1.5-10.3c2.4-2.4,5.7-3.1,8.7-2.3l-4,4   l1.5,4.5l4.5,1.5l4-4C75.8,48,75,51.4,72.6,53.7z"/><polygon points="53.7,68.4 50.4,71.7 28.7,50 26.2,50 22.4,43.3 25.2,40.4 32,44.2 32,46.7  "/><path d="M71.7,80.5l-8.1-8.1c-0.9,0.9-2.4,0.9-3.4,0c-0.9-0.9-0.9-2.5,0-3.4L58,66.9l-9.2,9.2l2.2,2.2c0.9-0.9,2.4-0.9,3.4,0   c0.9,0.9,0.9,2.4,0,3.4l8.1,8.1c2.5,2.5,6.6,2.5,9.2,0C74.2,87.2,74.2,83.1,71.7,80.5z M65.1,87.5l-6.8-6.8l1.4-1.4l6.8,6.8   L65.1,87.5z M68.1,84.5l-6.8-6.8l1.4-1.4l6.8,6.8L68.1,84.5z"/></g><text x="0" y="147" fill="#000000" font-size="5px" font-weight="bold" font-family="'Helvetica Neue', Helvetica, Arial-Unicode, Arial, Sans-serif">Created by Vectors Point</text><text x="0" y="152" fill="#000000" font-size="5px" font-weight="bold" font-family="'Helvetica Neue', Helvetica, Arial-Unicode, Arial, Sans-serif">from the Noun Project</text></svg>